<svg width="33" height="40" viewBox="0 0 33 40" fill="none" xmlns="http://www.w3.org/2000/svg">
<g clip-path="url(#clip0_908_51)">
<path d="M27.3666 10.7901C27.4307 10.3877 27.4629 9.98767 27.4727 9.59507C26.1098 8.88149 24.5098 8.47162 22.7566 8.47162H13.1171C12.5715 8.47162 12.1073 8.86915 12.0233 9.40743L10.206 20.9359C10.29 20.3976 10.7542 20 11.2998 20H16.6258C21.9862 20 26.5368 16.089 27.3666 10.7901Z" fill="#001C64"/>
<path d="M10.2038 20.9359L8.53217 31.5309L7.48525 38.1778C7.39884 38.7236 7.82106 39.2173 8.37415 39.2173H14.1569C14.7026 39.2173 15.1667 38.8197 15.2507 38.2815L16.7741 28.6223C16.8581 28.084 17.3223 27.6864 17.868 27.6864H21.273C26.6335 27.6864 31.184 23.7754 32.0136 18.4765C32.6037 14.7136 30.7099 11.2914 27.473 9.59509C27.4655 9.98768 27.4309 10.3877 27.3667 10.7902C26.5346 16.089 21.9864 20 16.6259 20H11.3001C10.7544 20 10.2902 20.3976 10.2062 20.9359" fill="#0070E0"/>
<path d="M8.53459 31.5284H1.80619C1.2531 31.5284 0.830875 31.0346 0.917291 30.489L5.45556 1.71858C5.53951 1.1803 6.00372 0.782776 6.5494 0.782776H18.1099C23.584 0.782776 27.5667 4.76795 27.4728 9.59266C26.1099 8.87907 24.5099 8.46919 22.7568 8.46919H13.1173C12.5716 8.46919 12.1074 8.86672 12.0235 9.40499L10.2062 20.9333L8.53459 31.5284Z" fill="#003087"/>
</g>
<defs>
<clipPath id="clip0_908_51">
<rect width="32" height="40" fill="white" transform="translate(0.161041)"/>
</clipPath>
</defs>
</svg>
